# xmcd CD database file
#
# Track frame offsets:
#	150
#	13833
#	25404
#	42137
#	59438
#	76302
#	90369
#	107141
#	123655
#	138924
#	155642
#	170564
#	188076
#
# Disc length: 2690 seconds
#
# Revision: 0
# Processed by: cddbd v1.5.2PL0 Copyright (c) Steve Scherf et al.
# Submitted via: CDex 1.70beta2
#
DISCID=a80a800d
DTITLE=Haymaker - Cdn. - Wrong Place, Right Time
DYEAR=1900
DGENRE=Country
TTITLE0=Go For A Ride
TTITLE1=Why Baby Why
TTITLE2=Part Of Me
TTITLE3=Cyberspace
TTITLE4=Not Ready Yet
TTITLE5=Show You The World
TTITLE6=Put Her Down
TTITLE7=Here In My Arms
TTITLE8=V.I.P.
TTITLE9=Did It
TTITLE10=Where Do We Go?
TTITLE11=Try Every Night
TTITLE12=Comes Around
EXTD=
EXTT0=
EXTT1=
EXTT2=
EXTT3=
EXTT4=
EXTT5=
EXTT6=
EXTT7=
EXTT8=
EXTT9=
EXTT10=
EXTT11=
EXTT12=
PLAYORDER=
